<svg width="800" height="800" viewBox="0 0 800 800" fill="none" xmlns="http://www.w3.org/2000/svg">
<path d="M129.828 503.314V532.837C129.83 539.106 131.347 545.281 134.249 550.838C137.151 556.399 141.353 561.171 146.496 564.757L263.509 447.74L231.069 415.3C230.201 414.433 229.17 413.745 228.036 413.275C226.903 412.805 225.687 412.563 224.46 412.563C223.233 412.563 222.017 412.805 220.884 413.275C219.75 413.745 218.72 414.433 217.852 415.3L129.828 503.314Z" fill="url(#paint0_linear_7_44)"/>
<path d="M224.45 376.996C228.373 376.986 232.258 377.751 235.882 379.256C239.506 380.757 242.796 382.963 245.561 385.743L285.521 425.702L367.564 343.659C376.074 335.163 387.608 330.391 399.633 330.391C411.657 330.391 423.191 335.163 431.7 343.659L545.779 457.737L581.037 422.479C586.641 416.888 594.23 413.748 602.148 413.748C610.063 413.748 617.655 416.888 623.256 422.479L669.44 468.7V266.245C669.44 259.409 667.641 252.693 664.219 246.773C660.801 240.853 655.885 235.937 649.965 232.518L419.105 99.2294C413.185 95.8107 406.466 94.0108 399.629 94.0108C392.791 94.0108 386.075 95.8107 380.153 99.2294L149.29 232.518C143.369 235.937 138.453 240.853 135.034 246.773C131.615 252.693 129.815 259.409 129.814 266.245V459.251L203.326 385.74C206.093 382.956 209.385 380.75 213.011 379.252C216.637 377.751 220.526 376.982 224.45 376.996Z" fill="url(#paint1_linear_7_44)"/>
<path d="M567.803 479.782L652.758 564.754C657.903 561.167 662.103 556.392 665.005 550.835C667.906 545.278 669.42 539.102 669.423 532.833V512.753L608.729 452.059C606.976 450.306 604.599 449.322 602.121 449.322C599.639 449.322 597.262 450.306 595.509 452.059L567.803 479.782Z" fill="url(#paint2_linear_7_44)"/>
<path d="M545.772 501.803L523.747 479.782L409.669 365.707C407.006 363.047 403.4 361.556 399.637 361.556C395.875 361.556 392.267 363.047 389.605 365.707L307.561 447.75L285.534 469.778L174.309 580.989L380.149 699.839C386.071 703.257 392.788 705.057 399.625 705.057C406.462 705.057 413.181 703.257 419.101 699.839L624.941 580.989L545.772 501.803Z" fill="url(#paint3_linear_7_44)"/>
<path d="M399.635 58.2091C407.271 58.207 414.776 60.2165 421.388 64.0351L679.306 212.945C685.921 216.764 691.411 222.256 695.229 228.87C699.047 235.484 701.058 242.987 701.058 250.624V548.444C701.058 556.08 699.047 563.582 695.229 570.197C691.411 576.808 685.921 582.302 679.306 586.12L421.388 735.03C414.773 738.848 407.271 740.859 399.634 740.859C391.997 740.859 384.494 738.848 377.88 735.03L119.962 586.12C113.348 582.302 107.856 576.808 104.037 570.197C100.219 563.582 98.2089 556.08 98.2091 548.444V250.624C98.209 242.987 100.219 235.484 104.037 228.87C107.856 222.256 113.348 216.764 119.962 212.945L377.88 64.0351C384.494 60.2168 391.998 58.2074 399.635 58.2091ZM399.635 26C386.346 26.0052 373.29 29.5035 361.778 36.1443L103.857 185.054C92.3614 191.716 82.8149 201.277 76.1717 212.783C69.5285 224.29 66.0211 237.338 66 250.624V548.444C66.0218 561.731 69.5299 574.78 76.1736 586.284C82.8174 597.792 92.3643 607.352 103.86 614.014L361.778 762.924C373.289 769.569 386.345 773.065 399.635 773.065C412.926 773.065 425.982 769.569 437.493 762.924L695.41 614.014C706.908 607.355 716.458 597.792 723.103 586.288C729.749 574.78 733.258 561.731 733.281 548.444V250.624C733.261 237.338 729.752 224.29 723.11 212.784C716.465 201.277 706.918 191.716 695.424 185.054L437.506 36.1443C425.995 29.5039 412.94 26.0057 399.649 26H399.635Z" fill="url(#paint4_linear_7_44)"/>
<defs>
<linearGradient id="paint0_linear_7_44" x1="196.668" y1="98.7361" x2="196.668" y2="707.515" gradientUnits="userSpaceOnUse">
<stop offset="0.004" stop-color="#2CB67D"/>
<stop offset="0.5" stop-color="#00A88B"/>
<stop offset="1" stop-color="#009A95"/>
</linearGradient>
<linearGradient id="paint1_linear_7_44" x1="399.627" y1="98.8818" x2="399.627" y2="707.754" gradientUnits="userSpaceOnUse">
<stop offset="0.004" stop-color="#2CB67D"/>
<stop offset="0.5" stop-color="#00A88B"/>
<stop offset="1" stop-color="#009A95"/>
</linearGradient>
<linearGradient id="paint2_linear_7_44" x1="618.615" y1="98.7516" x2="618.615" y2="707.545" gradientUnits="userSpaceOnUse">
<stop offset="0.004" stop-color="#2CB67D"/>
<stop offset="0.5" stop-color="#00A88B"/>
<stop offset="1" stop-color="#009A95"/>
</linearGradient>
<linearGradient id="paint3_linear_7_44" x1="399.625" y1="98.7764" x2="399.625" y2="707.462" gradientUnits="userSpaceOnUse">
<stop offset="0.004" stop-color="#2CB67D"/>
<stop offset="0.5" stop-color="#00A88B"/>
<stop offset="1" stop-color="#009A95"/>
</linearGradient>
<linearGradient id="paint4_linear_7_44" x1="399.641" y1="773.065" x2="399.641" y2="26" gradientUnits="userSpaceOnUse">
<stop stop-color="#2CB67D"/>
<stop offset="0.5" stop-color="#00A88B"/>
<stop offset="0.996" stop-color="#009A95"/>
</linearGradient>
</defs>
</svg>
